<svg xmlns="http://www.w3.org/2000/svg" width="294.17" height="84.704" viewBox="0 0 294.17 84.704"><defs><style>.a{fill:#4ce522;}.b{opacity:0.5;}.c{fill:#ff0;}.d{fill:#fff;}.e{fill:#0f0f27;}</style></defs><g transform="translate(-107.69 -836.341)"><g transform="translate(107.69 836.341)"><g transform="translate(96.057)"><g transform="translate(19.689)"><path class="a" d="M298.988,839.655a1.814,1.814,0,0,1,.509.433.949.949,0,0,1,.2.612,1.31,1.31,0,0,1-.153.586l-2.472,4.205a1.188,1.188,0,0,1-.918.586,1.216,1.216,0,0,1-.357-.063,1.738,1.738,0,0,1-.408-.191,13.552,13.552,0,0,0-3.441-1.784,11.816,11.816,0,0,0-3.9-.637,11.423,11.423,0,0,0-4.766.981,11.717,11.717,0,0,0-3.747,2.664,12.081,12.081,0,0,0-2.46,3.95,13.352,13.352,0,0,0-.879,4.868,13.179,13.179,0,0,0,.879,4.83,12.114,12.114,0,0,0,2.46,3.938,11.463,11.463,0,0,0,8.513,3.619,12.135,12.135,0,0,0,3.938-.637,12.922,12.922,0,0,0,3.454-1.784,1.141,1.141,0,0,1,.421-.2c.145-.034.268-.059.37-.076a1.236,1.236,0,0,1,.892.56l2.524,4.257a1.265,1.265,0,0,1,.153.56.82.82,0,0,1-.217.587,3.6,3.6,0,0,1-.5.433,20.252,20.252,0,0,1-5.161,2.485,19.087,19.087,0,0,1-5.824.879,19.287,19.287,0,0,1-9.838-2.651,19.752,19.752,0,0,1-6.983-6.97,19.039,19.039,0,0,1-1.963-4.639,19.549,19.549,0,0,1,1.963-15.037,19.738,19.738,0,0,1,3.046-3.963A18.988,18.988,0,0,1,278.266,839a19.957,19.957,0,0,1,4.652-1.963,19.7,19.7,0,0,1,10.947.153A19.755,19.755,0,0,1,298.988,839.655Z" transform="translate(-268.632 -836.341)"/><path class="a" d="M326.433,855.875a19.38,19.38,0,0,1,2.651-9.838,19.919,19.919,0,0,1,3.046-3.951,19.033,19.033,0,0,1,3.938-3.046,19.992,19.992,0,0,1,4.652-1.963,19.458,19.458,0,0,1,10.348,0,19.993,19.993,0,0,1,4.652,1.963,19.446,19.446,0,0,1,7,7,19.946,19.946,0,0,1,1.963,4.665,19.144,19.144,0,0,1,.7,5.2,18.873,18.873,0,0,1-.7,5.175,20.046,20.046,0,0,1-1.963,4.638,18.992,18.992,0,0,1-3.046,3.938,19.492,19.492,0,0,1-8.6,4.982,19.489,19.489,0,0,1-15.024-1.963,19.37,19.37,0,0,1-8.921-11.609A19.346,19.346,0,0,1,326.433,855.875Zm7.366-.051a12.439,12.439,0,0,0,.931,4.817,12.2,12.2,0,0,0,2.549,3.9,12.059,12.059,0,0,0,3.822,2.625,12.21,12.21,0,0,0,9.533,0,12.03,12.03,0,0,0,6.4-6.524,12.867,12.867,0,0,0,0-9.609,12.083,12.083,0,0,0-6.4-6.55,12.218,12.218,0,0,0-9.533,0,11.98,11.98,0,0,0-3.822,2.639,12.459,12.459,0,0,0-3.479,8.7Z" transform="translate(-284.864 -836.351)"/></g><g class="b" transform="translate(21.418)"><path class="a" d="M301.392,839.655a1.813,1.813,0,0,1,.509.433.949.949,0,0,1,.2.612,1.31,1.31,0,0,1-.153.586l-2.472,4.205a1.187,1.187,0,0,1-.918.586,1.22,1.22,0,0,1-.357-.063,1.752,1.752,0,0,1-.408-.191,13.546,13.546,0,0,0-3.441-1.784,11.823,11.823,0,0,0-3.9-.637,11.423,11.423,0,0,0-4.766.981,11.715,11.715,0,0,0-3.746,2.664,12.058,12.058,0,0,0-2.46,3.95,13.338,13.338,0,0,0-.88,4.868,13.165,13.165,0,0,0,.88,4.83,12.091,12.091,0,0,0,2.46,3.938,11.46,11.46,0,0,0,8.512,3.619,12.142,12.142,0,0,0,3.938-.637,12.944,12.944,0,0,0,3.453-1.784,1.133,1.133,0,0,1,.42-.2c.145-.034.268-.059.37-.076a1.238,1.238,0,0,1,.893.56l2.523,4.257a1.264,1.264,0,0,1,.153.56.822.822,0,0,1-.217.587,3.6,3.6,0,0,1-.5.433,20.252,20.252,0,0,1-5.161,2.485,19.087,19.087,0,0,1-5.824.879,19.282,19.282,0,0,1-9.838-2.651,19.746,19.746,0,0,1-6.984-6.97,19.066,19.066,0,0,1-1.963-4.639,19.549,19.549,0,0,1,1.963-15.037,19.738,19.738,0,0,1,3.046-3.963A18.975,18.975,0,0,1,280.671,839a19.952,19.952,0,0,1,4.651-1.963,19.7,19.7,0,0,1,10.947.153A19.744,19.744,0,0,1,301.392,839.655Z" transform="translate(-271.036 -836.341)"/><path class="a" d="M328.837,855.875a19.38,19.38,0,0,1,2.651-9.838,19.921,19.921,0,0,1,3.046-3.951,19.033,19.033,0,0,1,3.938-3.046,20,20,0,0,1,4.652-1.963,19.461,19.461,0,0,1,10.348,0,20,20,0,0,1,4.651,1.963,19.446,19.446,0,0,1,7,7,19.916,19.916,0,0,1,1.963,4.665,19.146,19.146,0,0,1,.7,5.2,18.875,18.875,0,0,1-.7,5.175,20.014,20.014,0,0,1-1.963,4.638,18.969,18.969,0,0,1-3.046,3.938,19.495,19.495,0,0,1-8.6,4.982,19.49,19.49,0,0,1-15.025-1.963,19.568,19.568,0,0,1-3.937-3.046,19.322,19.322,0,0,1-5.672-13.75Zm7.366-.051a12.439,12.439,0,0,0,.931,4.817,12.2,12.2,0,0,0,2.549,3.9,12.054,12.054,0,0,0,3.823,2.625,12.208,12.208,0,0,0,9.532,0,12.03,12.03,0,0,0,6.4-6.524,12.867,12.867,0,0,0,0-9.609,12.082,12.082,0,0,0-6.4-6.55,12.216,12.216,0,0,0-9.532,0,11.975,11.975,0,0,0-3.823,2.639,12.459,12.459,0,0,0-3.479,8.7Z" transform="translate(-287.268 -836.351)"/></g><g class="b" transform="translate(13.831)"><path class="c" d="M290.842,839.655a1.813,1.813,0,0,1,.509.433.949.949,0,0,1,.2.612,1.31,1.31,0,0,1-.153.586l-2.472,4.205a1.188,1.188,0,0,1-.918.586,1.216,1.216,0,0,1-.357-.063,1.736,1.736,0,0,1-.408-.191,13.552,13.552,0,0,0-3.441-1.784,11.816,11.816,0,0,0-3.9-.637,11.423,11.423,0,0,0-4.766.981,11.717,11.717,0,0,0-3.747,2.664,12.082,12.082,0,0,0-2.46,3.95,13.353,13.353,0,0,0-.879,4.868,13.18,13.18,0,0,0,.879,4.83,12.115,12.115,0,0,0,2.46,3.938,11.463,11.463,0,0,0,8.513,3.619,12.134,12.134,0,0,0,3.938-.637,12.936,12.936,0,0,0,3.454-1.784,1.133,1.133,0,0,1,.42-.2q.217-.051.37-.076a1.236,1.236,0,0,1,.892.56l2.524,4.257a1.265,1.265,0,0,1,.153.56.82.82,0,0,1-.217.587,3.592,3.592,0,0,1-.5.433,20.251,20.251,0,0,1-5.161,2.485,19.087,19.087,0,0,1-5.824.879,19.288,19.288,0,0,1-9.838-2.651,19.753,19.753,0,0,1-6.983-6.97,19.036,19.036,0,0,1-1.963-4.639,19.549,19.549,0,0,1,1.963-15.037,19.736,19.736,0,0,1,3.046-3.963A18.989,18.989,0,0,1,270.12,839a19.958,19.958,0,0,1,4.652-1.963,19.7,19.7,0,0,1,10.947.153A19.755,19.755,0,0,1,290.842,839.655Z" transform="translate(-260.486 -836.341)"/><path class="c" d="M318.287,855.875a19.379,19.379,0,0,1,2.651-9.838,19.92,19.92,0,0,1,3.046-3.951,19.033,19.033,0,0,1,3.938-3.046,19.992,19.992,0,0,1,4.652-1.963,19.458,19.458,0,0,1,10.348,0,19.993,19.993,0,0,1,4.652,1.963,19.446,19.446,0,0,1,7,7,19.946,19.946,0,0,1,1.963,4.665,19.145,19.145,0,0,1,.7,5.2,18.874,18.874,0,0,1-.7,5.175,20.046,20.046,0,0,1-1.963,4.638,18.992,18.992,0,0,1-3.046,3.938,19.492,19.492,0,0,1-8.6,4.982A19.489,19.489,0,0,1,327.9,872.67a19.369,19.369,0,0,1-8.921-11.609A19.348,19.348,0,0,1,318.287,855.875Zm7.366-.051a12.439,12.439,0,0,0,.931,4.817,12.2,12.2,0,0,0,2.549,3.9,12.055,12.055,0,0,0,3.823,2.625,12.208,12.208,0,0,0,9.532,0,12.03,12.03,0,0,0,6.4-6.524,12.867,12.867,0,0,0,0-9.609,12.083,12.083,0,0,0-6.4-6.55,12.216,12.216,0,0,0-9.532,0,11.976,11.976,0,0,0-3.823,2.639,12.459,12.459,0,0,0-3.479,8.7Z" transform="translate(-276.718 -836.351)"/></g><g transform="translate(15.474)"><path class="c" d="M293.126,839.655a1.817,1.817,0,0,1,.51.433.948.948,0,0,1,.2.612,1.319,1.319,0,0,1-.152.586l-2.473,4.205a1.186,1.186,0,0,1-.918.586,1.224,1.224,0,0,1-.357-.063,1.763,1.763,0,0,1-.408-.191,13.536,13.536,0,0,0-3.441-1.784,11.819,11.819,0,0,0-3.9-.637,11.421,11.421,0,0,0-4.766.981,11.717,11.717,0,0,0-3.747,2.664,12.069,12.069,0,0,0-2.46,3.95,13.354,13.354,0,0,0-.88,4.868,13.181,13.181,0,0,0,.88,4.83,12.1,12.1,0,0,0,2.46,3.938,11.462,11.462,0,0,0,8.513,3.619,12.141,12.141,0,0,0,3.938-.637,12.923,12.923,0,0,0,3.454-1.784,1.14,1.14,0,0,1,.421-.2c.144-.034.268-.059.37-.076a1.237,1.237,0,0,1,.892.56l2.523,4.257a1.265,1.265,0,0,1,.153.56.823.823,0,0,1-.216.587,3.594,3.594,0,0,1-.5.433,20.244,20.244,0,0,1-5.162,2.485,19.079,19.079,0,0,1-5.823.879,19.287,19.287,0,0,1-9.838-2.651,19.751,19.751,0,0,1-6.983-6.97,19.037,19.037,0,0,1-1.963-4.639,19.549,19.549,0,0,1,1.963-15.037,19.712,19.712,0,0,1,3.046-3.963A18.971,18.971,0,0,1,272.405,839a19.957,19.957,0,0,1,4.652-1.963A19.7,19.7,0,0,1,288,837.2,19.739,19.739,0,0,1,293.126,839.655Z" transform="translate(-262.771 -836.341)"/><path class="c" d="M320.572,855.875a19.389,19.389,0,0,1,2.65-9.838,19.926,19.926,0,0,1,3.046-3.951,19.013,19.013,0,0,1,3.938-3.046,20,20,0,0,1,4.651-1.963,19.461,19.461,0,0,1,10.348,0,20.006,20.006,0,0,1,4.652,1.963,19.446,19.446,0,0,1,7,7,19.946,19.946,0,0,1,1.963,4.665,19.173,19.173,0,0,1,.7,5.2,18.9,18.9,0,0,1-.7,5.175,20.046,20.046,0,0,1-1.963,4.638,19.019,19.019,0,0,1-3.046,3.938,19.492,19.492,0,0,1-8.6,4.982,19.487,19.487,0,0,1-15.024-1.963,19.573,19.573,0,0,1-6.971-6.97,19.353,19.353,0,0,1-2.638-9.826Zm7.366-.051a12.452,12.452,0,0,0,.93,4.817,12.213,12.213,0,0,0,2.549,3.9,12.055,12.055,0,0,0,3.823,2.625,12.208,12.208,0,0,0,9.532,0,12.034,12.034,0,0,0,6.4-6.524,12.876,12.876,0,0,0,0-9.609,12.265,12.265,0,0,0-2.562-3.912,12.128,12.128,0,0,0-3.836-2.639,12.216,12.216,0,0,0-9.532,0,11.976,11.976,0,0,0-3.823,2.639,12.454,12.454,0,0,0-3.479,8.7Z" transform="translate(-279.003 -836.351)"/></g><g transform="translate(17.382)"><path class="d" d="M295.779,839.655a1.827,1.827,0,0,1,.51.433.949.949,0,0,1,.2.612,1.318,1.318,0,0,1-.152.586l-2.473,4.205a1.186,1.186,0,0,1-.918.586,1.22,1.22,0,0,1-.357-.063,1.765,1.765,0,0,1-.408-.191,13.537,13.537,0,0,0-3.441-1.784,11.82,11.82,0,0,0-3.9-.637,11.421,11.421,0,0,0-4.766.981,11.718,11.718,0,0,0-3.747,2.664,12.069,12.069,0,0,0-2.46,3.95,13.354,13.354,0,0,0-.88,4.868,13.18,13.18,0,0,0,.88,4.83,12.1,12.1,0,0,0,2.46,3.938,11.463,11.463,0,0,0,8.513,3.619,12.141,12.141,0,0,0,3.938-.637,12.924,12.924,0,0,0,3.454-1.784,1.14,1.14,0,0,1,.421-.2c.144-.034.268-.059.37-.076a1.237,1.237,0,0,1,.892.56l2.523,4.257a1.265,1.265,0,0,1,.153.56.823.823,0,0,1-.216.587,3.594,3.594,0,0,1-.5.433,20.245,20.245,0,0,1-5.162,2.485,19.081,19.081,0,0,1-5.824.879,19.287,19.287,0,0,1-9.838-2.651,19.752,19.752,0,0,1-6.983-6.97,19.038,19.038,0,0,1-1.963-4.639,19.549,19.549,0,0,1,1.963-15.037,19.711,19.711,0,0,1,3.046-3.963A18.97,18.97,0,0,1,275.058,839a19.958,19.958,0,0,1,4.652-1.963,19.7,19.7,0,0,1,10.947.153A19.75,19.75,0,0,1,295.779,839.655Z" transform="translate(-265.424 -836.341)"/><path class="d" d="M323.225,855.875a19.389,19.389,0,0,1,2.65-9.838,19.948,19.948,0,0,1,3.046-3.951,19.018,19.018,0,0,1,3.938-3.046,20,20,0,0,1,4.651-1.963,19.461,19.461,0,0,1,10.348,0,20.005,20.005,0,0,1,4.652,1.963,19.447,19.447,0,0,1,7,7,19.946,19.946,0,0,1,1.962,4.665,19.146,19.146,0,0,1,.7,5.2,18.875,18.875,0,0,1-.7,5.175,20.045,20.045,0,0,1-1.962,4.638,19.019,19.019,0,0,1-3.046,3.938,19.492,19.492,0,0,1-8.6,4.982,19.49,19.49,0,0,1-15.025-1.963,19.568,19.568,0,0,1-3.938-3.046,19.324,19.324,0,0,1-5.671-13.75Zm7.366-.051a12.452,12.452,0,0,0,.93,4.817,12.213,12.213,0,0,0,2.549,3.9,12.054,12.054,0,0,0,3.823,2.625,12.208,12.208,0,0,0,9.532,0,12.034,12.034,0,0,0,6.4-6.524,12.877,12.877,0,0,0,0-9.609,12.264,12.264,0,0,0-2.562-3.912,12.128,12.128,0,0,0-3.836-2.639,12.216,12.216,0,0,0-9.532,0,11.975,11.975,0,0,0-3.823,2.639,12.454,12.454,0,0,0-3.479,8.7Z" transform="translate(-281.656 -836.351)"/></g><g transform="translate(10.706 11.439)"><rect class="d" width="13.151" height="2.379"/></g><g transform="translate(21.369 20.09)"><rect class="e" width="21.369" height="0.757"/></g><g transform="translate(94.908 25.191)"><rect class="e" width="21.369" height="0.378"/></g><g transform="translate(91.415 24.272)"><rect class="e" width="21.369" height="0.378"/></g><g transform="translate(4.455 9.736)"><rect class="e" width="21.369" height="0.378"/></g><g transform="translate(42.738 18.531)"><rect class="e" width="21.369" height="0.378"/></g><g transform="translate(38.749 20.115)"><rect class="e" width="21.369" height="0.378"/></g><g transform="translate(85.367 1.923)"><rect class="e" width="21.369" height="0.757"/></g><g transform="translate(79.9 4.14)"><rect class="e" width="21.369" height="0.757"/></g><g transform="translate(16.12 3.979)"><rect class="e" width="10.304" height="2.328"/></g><g transform="translate(86.249 33.698)"><rect class="e" width="21.369" height="1.532"/></g><g transform="translate(26.163 23.073)"><rect class="e" width="19.062" height="0.766"/></g><g transform="translate(94.447 29.499)"><rect class="d" width="14.491" height="1.19"/></g><g transform="translate(89.688 6.356)"><rect class="d" width="14.491" height="3.569"/></g><g transform="translate(7.894 30.256)"><rect class="d" width="14.491" height="0.865"/></g><g transform="translate(94.447 12.196)"><rect class="d" width="14.491" height="0.865"/></g><g transform="translate(11.93 28.093)"><rect class="d" width="14.491" height="0.865"/></g><g transform="translate(54.26 14.709)"><rect class="d" width="11.574" height="0.433"/></g><g transform="translate(52.538 22.131)"><rect class="d" width="10.264" height="0.942"/></g><g transform="translate(98.792 15.765)"><rect class="a" width="12.958" height="2.355"/></g><g transform="translate(9.365 25.57)"><rect class="c" width="8.478" height="1.424"/></g><g transform="translate(18.161 34.284)"><rect class="c" width="5.695" height="0.712"/></g><g transform="translate(50.065 16.019)"><rect class="c" width="7.46" height="1.512"/></g><g transform="translate(99.856 18.721)"><rect class="a" width="3.99" height="2.379"/></g><g transform="translate(13.145 16.342)"><rect class="c" width="3.99" height="2.379"/></g><g transform="translate(97.861 27.336)"><rect class="a" width="3.99" height="1.19"/></g><g transform="translate(21.601 45.733)"><path class="a" d="M271.29,901.833a1.169,1.169,0,0,1,.292-.777.994.994,0,0,1,.8-.344h5.08a1.224,1.224,0,0,1,.813.331,1.015,1.015,0,0,1,.381.79v13.2h17.1v-13.2a1.128,1.128,0,0,1,.3-.79,1.053,1.053,0,0,1,.813-.331h5a1.365,1.365,0,0,1,.877.293.97.97,0,0,1,.368.8v35.631q0,1.122-1.194,1.121h-5.054a.989.989,0,0,1-1.118-1.121v-15.42h-17.1v15.42q0,1.122-1.244,1.121h-5.029q-1.093,0-1.092-1.045Z" transform="translate(-271.29 -900.151)"/><path class="a" d="M330.5,937.618a8.148,8.148,0,0,1,.293-.943q.165-.434.293-.79l13.738-34.2a1.509,1.509,0,0,1,.42-.625,1.256,1.256,0,0,1,.931-.344h4.1a1.114,1.114,0,0,1,.88.306,3.289,3.289,0,0,1,.395.535l.841,1.989,13.457,33.668a1.662,1.662,0,0,0,.039.267,1.645,1.645,0,0,1,.038.319q0,.765-1.121.764h-5.021a1.419,1.419,0,0,1-.867-.229,1.685,1.685,0,0,1-.51-.713l-.459-1.172L356.979,934q-.484-1.223-.943-2.472H340.311q-.662,1.784-1.287,3.351t-1.058,2.74a1.318,1.318,0,0,1-1.325.943h-5.1a1.48,1.48,0,0,1-.777-.178.586.586,0,0,1-.293-.535A.79.79,0,0,1,330.5,937.618Zm17.739-27.2q-1.376,3.518-2.74,7.29t-2.739,7.264h10.857Z" transform="translate(-287.91 -900.151)"/><path class="a" d="M422.137,903.245a1.836,1.836,0,0,1,.51.434.949.949,0,0,1,.2.611,1.322,1.322,0,0,1-.153.587l-2.473,4.205a1.185,1.185,0,0,1-.918.586,1.2,1.2,0,0,1-.357-.064,1.763,1.763,0,0,1-.408-.19,13.511,13.511,0,0,0-3.441-1.784,11.815,11.815,0,0,0-3.9-.637,11.421,11.421,0,0,0-4.766.981,11.707,11.707,0,0,0-3.747,2.664,12.07,12.07,0,0,0-2.46,3.95,13.353,13.353,0,0,0-.879,4.868,13.175,13.175,0,0,0,.879,4.829,12.1,12.1,0,0,0,2.46,3.938,11.467,11.467,0,0,0,8.513,3.619,12.136,12.136,0,0,0,3.938-.637,12.93,12.93,0,0,0,3.453-1.784,1.128,1.128,0,0,1,.421-.2c.144-.034.268-.06.37-.076a1.238,1.238,0,0,1,.892.56l2.523,4.257a1.263,1.263,0,0,1,.153.56.821.821,0,0,1-.216.586,3.592,3.592,0,0,1-.5.434,20.243,20.243,0,0,1-5.162,2.485,19.1,19.1,0,0,1-5.824.88,19.285,19.285,0,0,1-9.838-2.651,19.753,19.753,0,0,1-6.983-6.97,19.044,19.044,0,0,1-1.963-4.639,19.553,19.553,0,0,1,1.963-15.038,19.727,19.727,0,0,1,3.046-3.963,18.99,18.99,0,0,1,3.938-3.046,19.97,19.97,0,0,1,4.652-1.963,19.7,19.7,0,0,1,10.947.153A19.762,19.762,0,0,1,422.137,903.245Z" transform="translate(-305.126 -899.932)"/><path class="a" d="M451.674,901.833a1.157,1.157,0,0,1,.293-.79,1.051,1.051,0,0,1,.828-.331h5.174a1.2,1.2,0,0,1,.4.076,1.236,1.236,0,0,1,.395.229,1.569,1.569,0,0,1,.306.357.851.851,0,0,1,.127.459v15.14l14.3-15.471a1.4,1.4,0,0,1,1.121-.79h7.29q.688,0,.688.306a.921.921,0,0,1-.306.535l-13.458,15.675,15.7,20.314a1.569,1.569,0,0,1,.383.739c0,.188-.179.281-.535.281h-7.748a1.4,1.4,0,0,1-1.121-.79L463.525,922.5l-4.333,4.486v10.45q0,1.122-1.223,1.121H452.8a.991.991,0,0,1-1.121-1.121Z" transform="translate(-321.945 -900.151)"/></g><g class="b" transform="translate(23.331 45.733)"><path class="a" d="M273.7,901.833a1.172,1.172,0,0,1,.291-.777.994.994,0,0,1,.8-.344h5.08a1.223,1.223,0,0,1,.813.331,1.015,1.015,0,0,1,.381.79v13.2h17.1v-13.2a1.128,1.128,0,0,1,.3-.79,1.053,1.053,0,0,1,.813-.331h5a1.365,1.365,0,0,1,.876.293.97.97,0,0,1,.368.8v35.631q0,1.122-1.194,1.121H299.28a.989.989,0,0,1-1.118-1.121v-15.42h-17.1v15.42q0,1.122-1.244,1.121h-5.029q-1.093,0-1.092-1.045Z" transform="translate(-273.695 -900.151)"/><path class="a" d="M332.9,937.618a8.15,8.15,0,0,1,.293-.943c.111-.289.208-.552.293-.79l13.738-34.2a1.508,1.508,0,0,1,.42-.625,1.257,1.257,0,0,1,.931-.344h4.1a1.114,1.114,0,0,1,.88.306,3.344,3.344,0,0,1,.4.535l.841,1.989,13.457,33.668a1.637,1.637,0,0,0,.038.267,1.647,1.647,0,0,1,.038.319q0,.765-1.121.764h-5.021a1.42,1.42,0,0,1-.867-.229,1.686,1.686,0,0,1-.51-.713l-.459-1.172L359.384,934q-.484-1.223-.944-2.472H342.715q-.663,1.784-1.287,3.351t-1.058,2.74a1.318,1.318,0,0,1-1.325.943h-5.1a1.476,1.476,0,0,1-.777-.178.585.585,0,0,1-.293-.535A.762.762,0,0,1,332.9,937.618Zm17.739-27.2q-1.375,3.518-2.74,7.29t-2.739,7.264H356.02Z" transform="translate(-290.314 -900.151)"/><path class="a" d="M424.541,903.245a1.827,1.827,0,0,1,.51.434.949.949,0,0,1,.2.611,1.311,1.311,0,0,1-.153.587l-2.473,4.205a1.184,1.184,0,0,1-.918.586,1.2,1.2,0,0,1-.357-.064,1.763,1.763,0,0,1-.408-.19,13.511,13.511,0,0,0-3.441-1.784,11.811,11.811,0,0,0-3.9-.637,11.423,11.423,0,0,0-4.766.981,11.707,11.707,0,0,0-3.747,2.664,12.071,12.071,0,0,0-2.46,3.95,13.354,13.354,0,0,0-.879,4.868,13.175,13.175,0,0,0,.879,4.829,12.1,12.1,0,0,0,2.46,3.938,11.467,11.467,0,0,0,8.513,3.619,12.133,12.133,0,0,0,3.938-.637A12.918,12.918,0,0,0,421,929.421a1.128,1.128,0,0,1,.421-.2c.144-.034.268-.06.37-.076a1.238,1.238,0,0,1,.892.56l2.524,4.257a1.272,1.272,0,0,1,.152.56.821.821,0,0,1-.217.586,3.546,3.546,0,0,1-.5.434,20.244,20.244,0,0,1-5.162,2.485,19.1,19.1,0,0,1-5.823.88,19.285,19.285,0,0,1-9.838-2.651,19.753,19.753,0,0,1-6.983-6.97,19.044,19.044,0,0,1-1.963-4.639,19.553,19.553,0,0,1,1.963-15.038,19.754,19.754,0,0,1,3.046-3.963,18.99,18.99,0,0,1,3.938-3.046,19.97,19.97,0,0,1,4.652-1.963,19.7,19.7,0,0,1,10.947.153A19.764,19.764,0,0,1,424.541,903.245Z" transform="translate(-307.531 -899.932)"/><path class="a" d="M454.078,901.833a1.154,1.154,0,0,1,.293-.79,1.049,1.049,0,0,1,.828-.331h5.174a1.2,1.2,0,0,1,.4.076,1.235,1.235,0,0,1,.395.229,1.571,1.571,0,0,1,.306.357.852.852,0,0,1,.128.459v15.14L475.9,901.5a1.4,1.4,0,0,1,1.121-.79h7.29q.688,0,.688.306a.921.921,0,0,1-.306.535l-13.457,15.675,15.7,20.314a1.562,1.562,0,0,1,.383.739c0,.188-.178.281-.535.281H479.03a1.4,1.4,0,0,1-1.121-.79L465.929,922.5l-4.332,4.486v10.45q0,1.122-1.224,1.121H455.2a.991.991,0,0,1-1.121-1.121Z" transform="translate(-324.35 -900.151)"/></g><g class="b" transform="translate(15.743 45.733)"><path class="c" d="M263.144,901.833a1.169,1.169,0,0,1,.292-.777.994.994,0,0,1,.8-.344h5.08a1.222,1.222,0,0,1,.813.331,1.015,1.015,0,0,1,.381.79v13.2h17.1v-13.2a1.128,1.128,0,0,1,.3-.79,1.053,1.053,0,0,1,.813-.331h5a1.365,1.365,0,0,1,.877.293.97.97,0,0,1,.368.8v35.631q0,1.122-1.194,1.121H288.73a.989.989,0,0,1-1.118-1.121v-15.42h-17.1v15.42q0,1.122-1.244,1.121h-5.029q-1.093,0-1.092-1.045Z" transform="translate(-263.144 -900.151)"/><path class="c" d="M322.352,937.618a8.148,8.148,0,0,1,.293-.943q.165-.434.293-.79l13.737-34.2a1.519,1.519,0,0,1,.421-.625,1.257,1.257,0,0,1,.931-.344h4.1a1.114,1.114,0,0,1,.88.306,3.289,3.289,0,0,1,.395.535l.841,1.989L357.7,937.21a1.662,1.662,0,0,0,.039.267,1.647,1.647,0,0,1,.038.319q0,.765-1.121.764h-5.021a1.42,1.42,0,0,1-.867-.229,1.685,1.685,0,0,1-.51-.713l-.459-1.172L348.833,934q-.484-1.223-.943-2.472H332.165q-.663,1.784-1.287,3.351t-1.058,2.74a1.318,1.318,0,0,1-1.325.943h-5.1a1.475,1.475,0,0,1-.777-.178.585.585,0,0,1-.293-.535A.79.79,0,0,1,322.352,937.618Zm17.739-27.2q-1.376,3.518-2.74,7.29t-2.739,7.264H345.47Z" transform="translate(-279.764 -900.151)"/><path class="c" d="M413.991,903.245a1.834,1.834,0,0,1,.51.434.949.949,0,0,1,.2.611,1.322,1.322,0,0,1-.153.587l-2.473,4.205a1.185,1.185,0,0,1-.918.586,1.2,1.2,0,0,1-.357-.064,1.766,1.766,0,0,1-.408-.19,13.509,13.509,0,0,0-3.44-1.784,11.815,11.815,0,0,0-3.9-.637,11.421,11.421,0,0,0-4.766.981,11.709,11.709,0,0,0-3.747,2.664,12.071,12.071,0,0,0-2.46,3.95,13.354,13.354,0,0,0-.879,4.868,13.175,13.175,0,0,0,.879,4.829,12.1,12.1,0,0,0,2.46,3.938,11.468,11.468,0,0,0,8.513,3.619A12.136,12.136,0,0,0,407,931.2a12.929,12.929,0,0,0,3.453-1.784,1.128,1.128,0,0,1,.421-.2c.144-.034.268-.06.37-.076a1.238,1.238,0,0,1,.892.56l2.523,4.257a1.264,1.264,0,0,1,.153.56.821.821,0,0,1-.216.586,3.587,3.587,0,0,1-.5.434,20.242,20.242,0,0,1-5.162,2.485,19.1,19.1,0,0,1-5.824.88,19.286,19.286,0,0,1-9.838-2.651,19.754,19.754,0,0,1-6.983-6.97,19.043,19.043,0,0,1-1.963-4.639,19.553,19.553,0,0,1,1.963-15.038,19.728,19.728,0,0,1,3.046-3.963,18.989,18.989,0,0,1,3.938-3.046,19.971,19.971,0,0,1,4.652-1.963,19.7,19.7,0,0,1,10.947.153A19.764,19.764,0,0,1,413.991,903.245Z" transform="translate(-296.98 -899.932)"/><path class="c" d="M443.528,901.833a1.157,1.157,0,0,1,.293-.79,1.051,1.051,0,0,1,.828-.331h5.174a1.2,1.2,0,0,1,.4.076,1.235,1.235,0,0,1,.395.229,1.571,1.571,0,0,1,.306.357.851.851,0,0,1,.127.459v15.14l14.3-15.471a1.4,1.4,0,0,1,1.121-.79h7.29q.688,0,.688.306a.921.921,0,0,1-.306.535L460.68,917.227l15.7,20.314a1.57,1.57,0,0,1,.383.739c0,.188-.179.281-.535.281H468.48a1.4,1.4,0,0,1-1.121-.79L455.379,922.5l-4.333,4.486v10.45q0,1.122-1.223,1.121h-5.174a.991.991,0,0,1-1.121-1.121Z" transform="translate(-313.799 -900.151)"/></g><g transform="translate(17.386 45.733)"><path class="c" d="M265.429,901.833a1.169,1.169,0,0,1,.292-.777.994.994,0,0,1,.8-.344h5.08a1.224,1.224,0,0,1,.813.331,1.017,1.017,0,0,1,.381.79v13.2h17.1v-13.2a1.131,1.131,0,0,1,.3-.79,1.055,1.055,0,0,1,.813-.331h5a1.362,1.362,0,0,1,.876.293.97.97,0,0,1,.369.8v35.631q0,1.122-1.195,1.121h-5.054a.989.989,0,0,1-1.117-1.121v-15.42h-17.1v15.42q0,1.122-1.245,1.121h-5.029q-1.093,0-1.092-1.045Z" transform="translate(-265.429 -900.151)"/><path class="c" d="M324.637,937.618a8.142,8.142,0,0,1,.293-.943q.165-.434.293-.79l13.738-34.2a1.509,1.509,0,0,1,.42-.625,1.257,1.257,0,0,1,.931-.344h4.1a1.115,1.115,0,0,1,.88.306,3.377,3.377,0,0,1,.395.535l.841,1.989,13.457,33.668a1.578,1.578,0,0,0,.039.267,1.707,1.707,0,0,1,.038.319q0,.765-1.122.764h-5.021a1.416,1.416,0,0,1-.866-.229,1.679,1.679,0,0,1-.51-.713l-.459-1.172L351.118,934q-.484-1.223-.943-2.472H334.45q-.663,1.784-1.287,3.351t-1.057,2.74a1.319,1.319,0,0,1-1.325.943h-5.1a1.478,1.478,0,0,1-.777-.178.584.584,0,0,1-.293-.535A.763.763,0,0,1,324.637,937.618Zm17.739-27.2q-1.377,3.518-2.74,7.29t-2.74,7.264h10.858Z" transform="translate(-282.049 -900.151)"/><path class="c" d="M416.276,903.245a1.846,1.846,0,0,1,.51.434.953.953,0,0,1,.2.611,1.313,1.313,0,0,1-.153.587l-2.472,4.205a1.014,1.014,0,0,1-1.274.522,1.75,1.75,0,0,1-.408-.19,13.515,13.515,0,0,0-3.441-1.784,11.812,11.812,0,0,0-3.9-.637,11.426,11.426,0,0,0-4.766.981,11.7,11.7,0,0,0-3.746,2.664,12.059,12.059,0,0,0-2.46,3.95,13.354,13.354,0,0,0-.88,4.868,13.176,13.176,0,0,0,.88,4.829,12.093,12.093,0,0,0,2.46,3.938,11.464,11.464,0,0,0,8.512,3.619,12.14,12.14,0,0,0,3.938-.637,12.941,12.941,0,0,0,3.454-1.784,1.117,1.117,0,0,1,.421-.2c.144-.034.267-.06.369-.076a1.238,1.238,0,0,1,.893.56l2.523,4.257a1.264,1.264,0,0,1,.153.56.821.821,0,0,1-.216.586,3.552,3.552,0,0,1-.5.434,20.236,20.236,0,0,1-5.161,2.485,19.112,19.112,0,0,1-5.824.88,19.28,19.28,0,0,1-9.838-2.651,19.574,19.574,0,0,1-3.938-3.046,19.788,19.788,0,0,1-3.046-3.924,19.042,19.042,0,0,1-1.962-4.639,19.559,19.559,0,0,1,1.962-15.038,19.782,19.782,0,0,1,3.046-3.963,18.975,18.975,0,0,1,3.938-3.046,19.966,19.966,0,0,1,4.651-1.963,19.7,19.7,0,0,1,10.947.153A19.767,19.767,0,0,1,416.276,903.245Z" transform="translate(-299.265 -899.932)"/><path class="c" d="M445.813,901.833a1.153,1.153,0,0,1,.293-.79,1.05,1.05,0,0,1,.829-.331h5.174a1.2,1.2,0,0,1,.395.076,1.238,1.238,0,0,1,.4.229,1.587,1.587,0,0,1,.306.357.851.851,0,0,1,.127.459v15.14l14.3-15.471a1.4,1.4,0,0,1,1.122-.79h7.289q.688,0,.688.306a.916.916,0,0,1-.306.535l-13.457,15.675,15.7,20.314a1.566,1.566,0,0,1,.382.739c0,.188-.178.281-.535.281h-7.748a1.4,1.4,0,0,1-1.121-.79L457.664,922.5l-4.333,4.486v10.45q0,1.122-1.223,1.121h-5.174a.991.991,0,0,1-1.121-1.121Z" transform="translate(-316.084 -900.151)"/></g><g transform="translate(19.294 45.733)"><path class="d" d="M268.082,901.833a1.169,1.169,0,0,1,.292-.777.994.994,0,0,1,.8-.344h5.08a1.224,1.224,0,0,1,.813.331,1.017,1.017,0,0,1,.381.79v13.2h17.1v-13.2a1.131,1.131,0,0,1,.3-.79,1.055,1.055,0,0,1,.813-.331h5a1.362,1.362,0,0,1,.876.293.97.97,0,0,1,.369.8v35.631q0,1.122-1.195,1.121h-5.054a.989.989,0,0,1-1.118-1.121v-15.42h-17.1v15.42q0,1.122-1.245,1.121h-5.029q-1.093,0-1.092-1.045Z" transform="translate(-268.082 -900.151)"/><path class="d" d="M327.29,937.618a8.019,8.019,0,0,1,.293-.943q.165-.434.293-.79l13.738-34.2a1.508,1.508,0,0,1,.42-.625,1.257,1.257,0,0,1,.931-.344h4.1a1.112,1.112,0,0,1,.879.306,3.348,3.348,0,0,1,.4.535l.841,1.989,13.457,33.668a1.583,1.583,0,0,0,.039.267,1.7,1.7,0,0,1,.037.319q0,.765-1.121.764h-5.021a1.417,1.417,0,0,1-.866-.229,1.68,1.68,0,0,1-.51-.713l-.459-1.172L353.771,934q-.484-1.223-.943-2.472H337.1q-.663,1.784-1.287,3.351t-1.057,2.74a1.319,1.319,0,0,1-1.325.943h-5.1a1.478,1.478,0,0,1-.777-.178.585.585,0,0,1-.293-.535A.761.761,0,0,1,327.29,937.618Zm17.739-27.2q-1.376,3.518-2.74,7.29t-2.739,7.264h10.857Z" transform="translate(-284.701 -900.151)"/><path class="d" d="M418.929,903.245a1.845,1.845,0,0,1,.51.434.952.952,0,0,1,.2.611,1.313,1.313,0,0,1-.153.587l-2.472,4.205a1.014,1.014,0,0,1-1.274.522,1.751,1.751,0,0,1-.408-.19,13.514,13.514,0,0,0-3.441-1.784,11.811,11.811,0,0,0-3.9-.637,11.423,11.423,0,0,0-4.766.981,11.7,11.7,0,0,0-3.746,2.664,12.059,12.059,0,0,0-2.46,3.95,13.339,13.339,0,0,0-.88,4.868,13.161,13.161,0,0,0,.88,4.829,12.093,12.093,0,0,0,2.46,3.938,11.464,11.464,0,0,0,8.512,3.619,12.14,12.14,0,0,0,3.938-.637,12.925,12.925,0,0,0,3.453-1.784,1.128,1.128,0,0,1,.421-.2c.145-.034.268-.06.37-.076a1.238,1.238,0,0,1,.893.56l2.523,4.257a1.263,1.263,0,0,1,.153.56.821.821,0,0,1-.216.586,3.548,3.548,0,0,1-.5.434,20.239,20.239,0,0,1-5.161,2.485,19.112,19.112,0,0,1-5.824.88,19.28,19.28,0,0,1-9.838-2.651,19.573,19.573,0,0,1-3.938-3.046,19.789,19.789,0,0,1-3.046-3.924,19.042,19.042,0,0,1-1.963-4.639,19.553,19.553,0,0,1,1.963-15.038,19.784,19.784,0,0,1,3.046-3.963,18.974,18.974,0,0,1,3.938-3.046,19.966,19.966,0,0,1,4.651-1.963,19.7,19.7,0,0,1,10.947.153A19.767,19.767,0,0,1,418.929,903.245Z" transform="translate(-301.918 -899.932)"/><path class="d" d="M448.466,901.833a1.153,1.153,0,0,1,.293-.79,1.05,1.05,0,0,1,.828-.331h5.174a1.2,1.2,0,0,1,.395.076,1.239,1.239,0,0,1,.4.229,1.607,1.607,0,0,1,.306.357.851.851,0,0,1,.127.459v15.14l14.3-15.471a1.4,1.4,0,0,1,1.122-.79h7.289q.688,0,.688.306a.917.917,0,0,1-.306.535l-13.457,15.675,15.7,20.314a1.562,1.562,0,0,1,.383.739c0,.188-.178.281-.535.281h-7.748a1.4,1.4,0,0,1-1.121-.79L460.317,922.5l-4.333,4.486v10.45q0,1.122-1.223,1.121h-5.174a.991.991,0,0,1-1.121-1.121Z" transform="translate(-318.737 -900.151)"/></g><g transform="translate(11.93 49.116)"><rect class="d" width="14.491" height="2.379"/></g><g transform="translate(176.743 80.171)"><rect class="e" width="21.369" height="0.378"/></g><g transform="translate(174.387 49.335)"><rect class="e" width="21.369" height="0.378"/></g><g transform="translate(166.481 58.876)"><rect class="e" width="21.369" height="0.378"/></g><g transform="translate(6.45 70.924)"><rect class="e" width="17.354" height="0.378"/></g><g transform="translate(0 68.879)"><rect class="e" width="21.369" height="0.378"/></g><g transform="translate(45.949 52.725)"><rect class="e" width="21.369" height="0.378"/></g><g transform="translate(82.579 50.985)"><rect class="e" width="21.369" height="0.378"/></g><g transform="translate(79.138 78.898)"><rect class="e" width="11.616" height="0.378"/></g><g transform="translate(105.256 52.129)"><rect class="e" width="11.616" height="0.378"/></g><g transform="translate(132.622 52.398)"><rect class="e" width="11.616" height="0.378"/></g><g transform="translate(111.75 70.086)"><rect class="e" width="11.616" height="0.378"/></g><g transform="translate(81.771 80.111)"><rect class="e" width="11.616" height="0.378"/></g><g transform="translate(174.387 81.338)"><rect class="e" width="21.369" height="0.378"/></g><g transform="translate(163.212 60.899)"><rect class="e" width="21.369" height="0.757"/></g><g transform="translate(5.608 53.883)"><rect class="e" width="19.062" height="0.766"/></g><g transform="translate(165.092 67.06)"><rect class="d" width="14.491" height="1.19"/></g><g transform="translate(162.331 64.628)"><rect class="d" width="20.69" height="0.297"/></g><g transform="translate(168.531 50.305)"><rect class="d" width="14.491" height="3.569"/></g><g transform="translate(173.359 77.27)"><rect class="d" width="14.491" height="0.865"/></g><g transform="translate(7.894 57.313)"><rect class="d" width="14.491" height="0.865"/></g><g transform="translate(172.677 55.212)"><rect class="a" width="6.906" height="2.019"/></g><g transform="translate(13.231 73.308)"><rect class="c" width="5.695" height="0.712"/></g><g transform="translate(98.014 61.094)"><rect class="c" width="7.34" height="1.245"/></g><g transform="translate(137.188 49.06)"><rect class="a" width="5.704" height="1.245"/></g><g transform="translate(137.188 51.174)"><rect class="a" width="4.667" height="0.354"/></g><g transform="translate(101.684 54.002)"><rect class="c" width="6.433" height="2.442"/></g><g transform="translate(173.689 70.275)"><path class="a" d="M490.031,936.435h-6.517l-.751-2.379h7.267Z" transform="translate(-482.764 -934.056)"/></g><g transform="translate(10.04 62.075)"><rect class="c" width="7.925" height="2.884"/></g><g transform="translate(52.671 57.353)"><rect class="a" width="7.925" height="2.884"/></g><g transform="translate(84.371 48.278)"><rect class="a" width="6.25" height="1.442"/></g><g transform="translate(86.782 52.994)"><rect class="a" width="8.819" height="0.721"/></g><g transform="translate(10.04 82.165)"><rect class="d" width="11.369" height="0.505"/></g><g transform="translate(47.266 54.976)"><rect class="d" width="11.369" height="0.505"/></g><g transform="translate(81.895 81.926)"><rect class="d" width="11.369" height="0.505"/></g><g transform="translate(100.018 58.138)"><rect class="d" width="11.369" height="0.505"/></g><g transform="translate(114.049 71.464)"><rect class="d" width="10.32" height="0.864"/></g><g transform="translate(14.003 75.437)"><rect class="e" width="7.366" height="1.489"/></g><g transform="translate(49.267 49.561)"><rect class="e" width="7.366" height="1.489"/></g><g transform="translate(13.452 78.343)"><rect class="e" width="11.218" height="1.489"/></g></g><g transform="translate(0 2.335)"><g transform="translate(11.197)"><path class="c" d="M155.016,839.588a31.757,31.757,0,0,0-31.757,31.757v39.823a.585.585,0,0,0,1,.414L138.6,897.239V865.683a.969.969,0,0,1,.969-.97h5.326a.969.969,0,0,1,.969.97v23.479a.337.337,0,0,0,.575.238l9.535-9.535v-21.2a.969.969,0,0,1,.969-.969h5.326a.97.97,0,0,1,.97.969v13.126a.336.336,0,0,0,.574.237l13.208-13.208a.971.971,0,0,1,1.371,0l3.766,3.766a.97.97,0,0,1,0,1.371l-13.5,13.5h13.366a.97.97,0,0,1,.97.97v5.326a.97.97,0,0,1-.97.969H161.4l-10.109,10.109h23.719a.97.97,0,0,1,.969.97v5.325a.97.97,0,0,1-.969.969H144.023l-15.429,15.429a.585.585,0,0,0,.414,1h41.424a31.757,31.757,0,0,0,31.757-31.757V841.912a2.325,2.325,0,0,0-2.325-2.324Z" transform="translate(-123.259 -839.588)"/></g><g class="b" transform="translate(9.381)"><path class="c" d="M152.491,839.588a31.756,31.756,0,0,0-31.757,31.757v39.819a.586.586,0,0,0,1,.414l14.339-14.339V865.683a.97.97,0,0,1,.97-.97h5.326a.97.97,0,0,1,.969.97v22.981a.542.542,0,0,0,.926.383l9.182-9.182v-21.2a.97.97,0,0,1,.97-.969h5.326a.969.969,0,0,1,.969.969V871.29a.543.543,0,0,0,.926.384L174.5,858.817a.971.971,0,0,1,1.371,0l3.766,3.766a.97.97,0,0,1,0,1.371l-13.5,13.5H179.5a.97.97,0,0,1,.969.97v5.326a.969.969,0,0,1-.969.969H158.871l-10.109,10.109h23.719a.97.97,0,0,1,.97.97v5.325a.97.97,0,0,1-.97.969H141.5l-15.425,15.426a.587.587,0,0,0,.414,1h41.42a31.757,31.757,0,0,0,31.757-31.757V841.912a2.325,2.325,0,0,0-2.325-2.324Z" transform="translate(-120.734 -839.588)"/></g><g transform="translate(13.24)"><path class="a" d="M157.857,839.588A31.757,31.757,0,0,0,126.1,871.345v39.983a.519.519,0,0,0,.885.367l14.456-14.456V865.683a.97.97,0,0,1,.969-.97h5.326a.97.97,0,0,1,.97.97V888.96a.42.42,0,0,0,.716.3l9.393-9.393v-21.2a.969.969,0,0,1,.969-.969h5.326a.97.97,0,0,1,.97.969v12.925a.42.42,0,0,0,.716.3l13.065-13.066a.971.971,0,0,1,1.371,0L185,862.584a.969.969,0,0,1,0,1.371l-13.5,13.5h13.366a.97.97,0,0,1,.97.97v5.326a.97.97,0,0,1-.97.969h-20.63l-10.11,10.109h23.719a.97.97,0,0,1,.969.97v5.325a.97.97,0,0,1-.969.969H146.864l-15.542,15.542a.519.519,0,0,0,.367.886h41.584A31.757,31.757,0,0,0,205.03,886.76V841.912a2.325,2.325,0,0,0-2.325-2.324Z" transform="translate(-126.1 -839.588)"/></g><g class="b" transform="translate(15.284)"><path class="a" d="M160.7,839.588a31.757,31.757,0,0,0-31.757,31.757v40.081a.478.478,0,0,0,.816.337l14.525-14.525V865.683a.97.97,0,0,1,.969-.97h5.326a.97.97,0,0,1,.97.97V888.8a.485.485,0,0,0,.828.343l9.28-9.28v-21.2a.97.97,0,0,1,.97-.969h5.325a.97.97,0,0,1,.97.969v12.767a.485.485,0,0,0,.828.343L182.7,858.817a.971.971,0,0,1,1.371,0l3.766,3.766a.969.969,0,0,1,0,1.371l-13.5,13.5H187.71a.97.97,0,0,1,.969.97v5.326a.97.97,0,0,1-.969.969H167.079l-10.11,10.109h23.719a.97.97,0,0,1,.969.97v5.325a.969.969,0,0,1-.969.969H149.705L134.094,917.7a.478.478,0,0,0,.338.816h41.682a31.757,31.757,0,0,0,31.757-31.757V841.912a2.325,2.325,0,0,0-2.325-2.324Z" transform="translate(-128.941 -839.588)"/></g><rect class="e" width="10.5" height="2.306" transform="translate(4.677 44.357)"/><rect class="e" width="18.026" height="0.47" transform="translate(0.273 59.138)"/><rect class="d" width="16.869" height="0.545" transform="translate(3.277 50.266)"/><rect class="d" width="8.899" height="0.437" transform="translate(17.088 54.689)"/><rect class="d" width="7.683" height="0.301" transform="translate(81.458 11.567)"/><rect class="d" width="13.016" height="0.396" transform="translate(71.244 7.736)"/><rect class="e" width="12.525" height="0.378" transform="translate(87.203 20.636)"/><rect class="c" width="12.405" height="0.491" transform="translate(0 40.057)"/><rect class="c" width="6.072" height="1.256" transform="translate(6.333 35.798)"/><rect class="e" width="10.319" height="1.338" transform="translate(88.391 4.133)"/><rect class="a" width="8.755" height="3.39" transform="translate(86.723 12.967)"/><rect class="e" width="6.709" height="0.378" transform="translate(77.656 16.096)"/></g></g></g></svg>